<mxfile host="app.diagrams.net" modified="2024-06-15T21:48:45.768Z" agent="Mozilla/5.0 (X11; Linux x86_64) AppleWebKit/537.36 (KHTML, like Gecko) Chrome/121.0.0.0 Safari/537.36" version="24.5.4" etag="jzT7TPvvjbTTCsC4qmHU" type="github">
  <diagram name="Page-1" id="TeB73C3pNC4TmMqjUUR1">
    <mxGraphModel>
      <root>
        <mxCell id="0" />
        <mxCell id="1" parent="0" />
      </root>
    </mxGraphModel>
  </diagram>
</mxfile>
